<svg width="32" height="32" viewBox="0 0 32 32" fill="none" xmlns="http://www.w3.org/2000/svg">
<rect width="32" height="32" rx="16" fill="#15192A"/>
<g clip-path="url(#clip0_1491_2665)">
<path d="M21.9554 18.397V11.5768H23.4022V18.397H21.9554Z" fill="#F6A500"/>
<path d="M5.1008 20.423H2.00061V13.6028H4.9768C6.42355 13.6028 7.26474 14.3493 7.26474 15.519C7.26474 16.2753 6.72324 16.7651 6.34915 16.9277C6.79558 17.1197 7.36808 17.5507 7.36808 18.4598C7.36808 19.7333 6.42149 20.423 5.1008 20.423ZM4.86106 14.7902H3.4453V16.3615H4.86106C5.47489 16.3615 5.81798 16.046 5.81798 15.5758C5.81798 15.1075 5.47489 14.7902 4.86106 14.7902ZM4.95406 17.5586H3.4453V19.2357H4.95406C5.60924 19.2357 5.92132 18.8536 5.92132 18.3932C5.92132 17.9328 5.60924 17.5605 4.95406 17.5605V17.5586Z" fill="white"/>
<path d="M11.7806 17.6252V20.423H10.3442V17.6252L8.11829 13.6028H9.68905L11.0717 16.3517L12.4358 13.6028H14.0066L11.7806 17.6252Z" fill="white"/>
<path d="M18.1072 20.423H15.007V13.6028H17.9831C19.4299 13.6028 20.2711 14.3493 20.2711 15.519C20.2711 16.2753 19.7296 16.7651 19.3555 16.9277C19.8019 17.1197 20.3744 17.5507 20.3744 18.4598C20.3744 19.7333 19.4278 20.423 18.1072 20.423ZM17.8674 14.7902H16.4516V16.3615H17.8674C18.4812 16.3615 18.8243 16.046 18.8243 15.5758C18.8243 15.1075 18.4812 14.7902 17.8674 14.7902ZM17.9604 17.5586H16.4516V19.2357H17.9604C18.6156 19.2357 18.9277 18.8536 18.9277 18.3932C18.9277 17.9328 18.6156 17.5605 17.9604 17.5605V17.5586Z" fill="white"/>
<path d="M28.0628 14.7902V20.423H26.6181V14.7902H24.6815V13.6028H29.9994V14.7902H28.0628Z" fill="white"/>
</g>
<defs>
<clipPath id="clip0_1491_2665">
<rect width="28" height="8.8421" fill="white" transform="translate(2 11.5789)"/>
</clipPath>
</defs>
</svg>
