<svg width="32" height="32" viewBox="0 0 32 32" fill="none" xmlns="http://www.w3.org/2000/svg">
<rect width="32" height="32" rx="16" fill="#F0B90B"/>
<path d="M9.424 16L6.736 18.688L4 16L6.736 13.264L9.424 16ZM16 9.424L20.656 14.08L23.392 11.344L16 4L8.656 11.344L11.392 14.08L16 9.424ZM25.264 13.264L22.576 16L25.312 18.736L28 16L25.264 13.264ZM16 22.576L11.344 17.92L8.608 20.656L16 28L23.344 20.656L20.656 17.92L16 22.576ZM16 18.688L18.736 15.952L16 13.264L13.264 16L16 18.688Z" fill="white"/>
</svg>
