<svg width="120" height="24" viewBox="0 0 120 24" fill="none" xmlns="http://www.w3.org/2000/svg">
<g clip-path="url(#clip0_4858_12756)">
<path d="M5.45455 12L2.75141 14.688L0 12L2.75141 9.264L5.45455 12ZM12.0676 5.424L16.7498 10.08L19.5012 7.344L12.0676 0L4.68222 7.344L7.43363 10.08L12.0676 5.424ZM21.3837 9.264L18.6806 12L21.432 14.736L24.1352 12L21.3837 9.264ZM12.0676 18.576L7.38536 13.92L4.63395 16.656L12.0676 24L19.4529 16.656L16.7498 13.92L12.0676 18.576ZM12.0676 14.688L14.819 11.952L12.0676 9.264L9.31617 12L12.0676 14.688ZM40.8367 14.976C40.8367 13.152 39.8713 12.288 38.3749 11.712C39.3403 11.184 40.1126 10.368 40.1126 8.88V8.832C40.1126 6.768 38.4232 5.424 35.7683 5.424H29.5897V18.576H35.8648C38.8576 18.576 40.8367 17.376 40.8367 14.976ZM37.1681 9.36C37.1681 10.368 36.3475 10.752 35.0925 10.752H32.3894V7.968H35.2856C36.4924 7.968 37.1681 8.448 37.1681 9.36ZM37.9405 14.592C37.9405 15.552 37.1681 16.032 35.9131 16.032H32.4376V13.152H35.8166C37.2647 13.152 37.9405 13.68 37.9405 14.592ZM46.9187 18.576V5.424H43.9743V18.576H46.9187ZM62.5583 18.576V5.424H59.6621V13.536L53.4835 5.424H50.7804V18.576H53.6766V10.224L60.0965 18.576H62.5583ZM78.6806 18.576L72.9847 5.328H70.2816L64.5857 18.576H67.5784L68.7852 15.6H74.3846L75.5913 18.576H78.6806ZM73.3709 13.056H69.8471L71.6331 8.784L73.3709 13.056ZM92.5825 18.576V5.424H89.6862V13.536L83.5076 5.424H80.8045V18.576H83.7007V10.224L90.1207 18.576H92.5825ZM107.595 16.464L105.712 14.592C104.65 15.552 103.733 16.128 102.237 16.128C99.9678 16.128 98.3749 14.256 98.3749 12V11.952C98.3749 9.696 99.9678 7.872 102.237 7.872C103.54 7.872 104.602 8.448 105.615 9.36L107.498 7.248C106.291 6.048 104.795 5.232 102.285 5.232C98.2301 5.232 95.3821 8.304 95.3821 12.048V12C95.3821 15.792 98.2784 18.768 102.188 18.768C104.698 18.816 106.243 17.904 107.595 16.464ZM120 18.576V15.984H112.808V13.2H119.035V10.608H112.808V7.92H119.903V5.328H109.911V18.48L120 18.576Z" fill="white"/>
</g>
<defs>
<clipPath id="clip0_4858_12756">
<rect width="120" height="24" fill="white"/>
</clipPath>
</defs>
</svg>
