<svg width="72" height="24" viewBox="0 0 72 24" fill="none" xmlns="http://www.w3.org/2000/svg">
<g clip-path="url(#clip0_2508_1738)">
<path d="M51.3141 18.5065V-0.00531769H55.0343V18.5065H51.3141Z" fill="white"/>
<path d="M7.97339 24.0053H0.00146484V5.49346H7.65451C11.3747 5.49346 13.5378 7.51961 13.5378 10.6944C13.5378 12.7472 12.1454 14.0767 11.1834 14.5181C12.3314 15.0392 13.8035 16.2092 13.8035 18.6767C13.8035 22.1334 11.3694 24.0053 7.97339 24.0053ZM7.3569 8.71615H3.71638V12.9812H7.3569C8.93534 12.9812 9.81756 12.125 9.81756 10.8487C9.81756 9.57766 8.93534 8.71615 7.3569 8.71615ZM7.59605 16.2304H3.71638V20.7826H7.59605C9.28079 20.7826 10.0833 19.7456 10.0833 18.4959C10.0833 17.2462 9.28079 16.2358 7.59605 16.2358V16.2304Z" fill="white"/>
<path d="M25.1503 16.4113V24.0053H21.4566V16.4113L15.7328 5.49346H19.7719L23.3274 12.9546L26.835 5.49346H30.8741L25.1503 16.4113Z" fill="white"/>
<path d="M41.4183 24.0053H33.4464V5.49346H41.0995C44.8197 5.49346 46.9827 7.51961 46.9827 10.6944C46.9827 12.7472 45.5903 14.0767 44.6284 14.5181C45.7763 15.0392 47.2485 16.2092 47.2485 18.6767C47.2485 22.1334 44.8144 24.0053 41.4183 24.0053ZM40.8018 8.71615H37.1613V12.9812H40.8018C42.3803 12.9812 43.2625 12.125 43.2625 10.8487C43.2625 9.57766 42.3803 8.71615 40.8018 8.71615ZM41.041 16.2304H37.1613V20.7826H41.041C42.7257 20.7826 43.5282 19.7456 43.5282 18.4959C43.5282 17.2462 42.7257 16.2358 41.041 16.2358V16.2304Z" fill="white"/>
<path d="M67.0188 8.71615V24.0053H63.3039V8.71615H58.3241V5.49346H71.9986V8.71615H67.0188Z" fill="white"/>
</g>
<defs>
<clipPath id="clip0_2508_1738">
<rect width="72" height="24" fill="white"/>
</clipPath>
</defs>
</svg>
