<svg width="70" height="20" viewBox="0 0 70 20" fill="none" xmlns="http://www.w3.org/2000/svg">
<g clip-path="url(#clip0_2508_1723)">
<path d="M20.5296 0H0.466585C0.342837 0 0.224161 0.0468233 0.136659 0.13017C0.0491574 0.213516 0 0.326559 0 0.444429V19.5548C0 19.6727 0.0491574 19.7858 0.136659 19.8692C0.224161 19.9524 0.342837 19.9992 0.466585 19.9992H20.5296C20.6535 19.9992 20.7721 19.9524 20.8597 19.8692C20.9471 19.7858 20.9964 19.6727 20.9964 19.5548V0.444429C20.9964 0.326559 20.9471 0.213516 20.8597 0.13017C20.7721 0.0468233 20.6535 0 20.5296 0ZM13.9975 12.8884C13.9975 13.0063 13.9484 13.1193 13.8609 13.2027C13.7734 13.286 13.6547 13.3329 13.5309 13.3329H7.46534C7.3416 13.3329 7.22292 13.286 7.13542 13.2027C7.04792 13.1193 6.99875 13.0063 6.99875 12.8884V7.11086C6.99875 6.99299 7.04792 6.87994 7.13542 6.7966C7.22292 6.71325 7.3416 6.66643 7.46534 6.66643H13.5309C13.6547 6.66643 13.7734 6.71325 13.8609 6.7966C13.9484 6.87994 13.9975 6.99299 13.9975 7.11086V12.8884Z" fill="white"/>
<path d="M62.5309 6.66724H56.4652C56.2077 6.66724 55.9987 6.86621 55.9987 7.11167V12.8892C55.9987 13.1347 56.2077 13.3337 56.4652 13.3337H62.5309C62.7886 13.3337 62.9975 13.1347 62.9975 12.8892V7.11167C62.9975 6.86621 62.7886 6.66724 62.5309 6.66724Z" fill="white"/>
<path d="M55.5337 0.000320435H49.4682C49.2104 0.000320435 49.0016 0.199298 49.0016 0.444749V6.22232C49.0016 6.46777 49.2104 6.66675 49.4682 6.66675H55.5337C55.7914 6.66675 56.0004 6.46777 56.0004 6.22232V0.444749C56.0004 0.199298 55.7914 0.000320435 55.5337 0.000320435Z" fill="white"/>
<path d="M69.5335 0.000320435H63.4678C63.2102 0.000320435 63.0012 0.199298 63.0012 0.444749V6.22232C63.0012 6.46777 63.2102 6.66675 63.4678 6.66675H69.5335C69.7912 6.66675 70 6.46777 70 6.22232V0.444749C70 0.199298 69.7912 0.000320435 69.5335 0.000320435Z" fill="white"/>
<path d="M55.5337 13.3335H49.4682C49.2104 13.3335 49.0016 13.5325 49.0016 13.7779V19.5556C49.0016 19.801 49.2104 20 49.4682 20H55.5337C55.7914 20 56.0004 19.801 56.0004 19.5556V13.7779C56.0004 13.5325 55.7914 13.3335 55.5337 13.3335Z" fill="white"/>
<path d="M69.5335 13.3335H63.4678C63.2102 13.3335 63.0012 13.5325 63.0012 13.7779V19.5556C63.0012 19.801 63.2102 20 63.4678 20H69.5335C69.7912 20 70 19.801 70 19.5556V13.7779C70 13.5325 69.7912 13.3335 69.5335 13.3335Z" fill="white"/>
<path d="M45.0271 0.000320435H38.9616C38.7039 0.000320435 38.4949 0.199298 38.4949 0.444749V6.22232C38.4949 6.46777 38.7039 6.66675 38.9616 6.66675H45.0271C45.2848 6.66675 45.4937 6.46777 45.4937 6.22232V0.444749C45.4937 0.199298 45.2848 0.000320435 45.0271 0.000320435Z" fill="white"/>
<path d="M45.0271 13.3335H38.9616C38.7039 13.3335 38.4949 13.5325 38.4949 13.7779V19.5556C38.4949 19.801 38.7039 20 38.9616 20H45.0271C45.2848 20 45.4937 19.801 45.4937 19.5556V13.7779C45.4937 13.5325 45.2848 13.3335 45.0271 13.3335Z" fill="white"/>
<path d="M38.493 7.10586C38.493 6.98799 38.4438 6.87495 38.3563 6.79161C38.2689 6.70825 38.1501 6.66143 38.0264 6.66143H31.4942V0.444429C31.4942 0.326559 31.4449 0.213516 31.3575 0.13017C31.2701 0.0468233 31.1513 0 31.0276 0H24.9621C24.8382 0 24.7197 0.0468233 24.632 0.13017C24.5446 0.213516 24.4954 0.326559 24.4954 0.444429V19.5449C24.4954 19.6627 24.5446 19.7757 24.632 19.8591C24.7197 19.9425 24.8382 19.9893 24.9621 19.9893H31.0276C31.1513 19.9893 31.2701 19.9425 31.3575 19.8591C31.4449 19.7757 31.4942 19.6627 31.4942 19.5449V13.3279H38.0264C38.1501 13.3279 38.2689 13.281 38.3563 13.1977C38.4438 13.1143 38.493 13.0013 38.493 12.8834V7.10586Z" fill="white"/>
</g>
<defs>
<clipPath id="clip0_2508_1723">
<rect width="70" height="20" fill="white"/>
</clipPath>
</defs>
</svg>
